<svg xmlns="http://www.w3.org/2000/svg" width="256" height="256" xml:space="preserve"><g style="stroke:none;stroke-width:0;stroke-dasharray:none;stroke-linecap:butt;stroke-linejoin:miter;stroke-miterlimit:10;fill:none;fill-rule:nonzero;opacity:1" transform="matrix(2.81 0 0 2.81 1.407 1.407)"><path d="M74.453 48.627c-5.538 0-11.075-2.107-15.291-6.324-6.11-6.11-7.768-14.99-5.024-22.629H6.058A6.06 6.06 0 0 0 0 25.733v16.322L23.834 62.37a6.64 6.64 0 0 0 8.047.434l14.382-9.801a6.639 6.639 0 0 1 7.677.141l27.15 20.001V47.571a21.728 21.728 0 0 1-6.637 1.056z" style="stroke:none;stroke-width:1;stroke-dasharray:none;stroke-linecap:butt;stroke-linejoin:miter;stroke-miterlimit:10;fill:#c1e5f4;fill-rule:nonzero;opacity:1"/><circle cx="27.942" cy="37.942" r="6.072" style="stroke:none;stroke-width:1;stroke-dasharray:none;stroke-linecap:butt;stroke-linejoin:miter;stroke-miterlimit:10;fill:#fff0a9;fill-rule:nonzero;opacity:1"/><path d="M85.446 16.02c-6.061-6.061-15.922-6.061-21.983 0s-6.061 15.923 0 21.984a15.495 15.495 0 0 0 10.992 4.546c3.98 0 7.962-1.515 10.992-4.545A15.448 15.448 0 0 0 90 27.012a15.44 15.44 0 0 0-4.554-10.992zm-3.555 3.555a10.444 10.444 0 0 1 3.081 7.436c0 1.95-.538 3.813-1.525 5.438L69.019 18.021c4.043-2.442 9.384-1.934 12.872 1.554zM67.018 34.449c-3.486-3.487-3.997-8.829-1.554-12.873L79.89 36.003c-4.043 2.443-9.385 1.932-12.872-1.554z" style="stroke:none;stroke-width:1;stroke-dasharray:none;stroke-linecap:butt;stroke-linejoin:miter;stroke-miterlimit:10;fill:#e29393;fill-rule:nonzero;opacity:1"/><path d="M0 40.043v32.425a6.058 6.058 0 0 0 6.058 6.058h68.974a6.058 6.058 0 0 0 6.058-6.058v-1.335L53.94 51.132a6.639 6.639 0 0 0-7.677-.141L31.88 60.792a6.64 6.64 0 0 1-8.047-.434L0 40.043z" style="stroke:none;stroke-width:1;stroke-dasharray:none;stroke-linecap:butt;stroke-linejoin:miter;stroke-miterlimit:10;fill:#96ea9c;fill-rule:nonzero;opacity:1"/></g></svg>